<?xml version="1.0" encoding="utf-8"?>
<!-- Generator: Adobe Illustrator 24.3.0, SVG Export Plug-In . SVG Version: 6.00 Build 0)  -->
<svg version="1.1" id="Capa_1" xmlns="http://www.w3.org/2000/svg" xmlns:xlink="http://www.w3.org/1999/xlink" x="0px" y="0px"
	 viewBox="0 0 1220 419" style="enable-background:new 0 0 1220 419;" xml:space="preserve">
<style type="text/css">
	.st0{fill:#E4004E;}
</style>
<g>
	<g>
		<g>
			<g>
				<g>
					<g>
						<g>
							<g>
								<path class="st0" d="M174.98,60.56c-16.54-6.69-29.88-19.6-37.12-35.84c-54.18,19.26-97.07,62.35-116,116.67
									c16.4,7.47,29.35,21.18,35.84,38.11C67.93,119.26,115.04,71.59,174.98,60.56"/>
								<path class="st0" d="M57.7,228.72c-6.48,16.92-19.44,30.63-35.84,38.11c18.94,54.32,61.83,97.42,116,116.67
									c7.24-16.25,20.6-29.15,37.12-35.84C115.04,336.6,67.93,288.95,57.7,228.72"/>
								<path class="st0" d="M262.78,204.12c0,33.78-27.4,61.18-61.19,61.18c-33.78,0-61.16-27.4-61.16-61.18
									c0-33.8,27.38-61.19,61.16-61.19C235.39,142.93,262.78,170.31,262.78,204.12"/>
							</g>
						</g>
					</g>
				</g>
			</g>
		</g>
		<g>
			<path class="st0" d="M262.47,22.73l-1.91,7.82c-7.45,13.14-19,23.57-33.01,29.52c68.45,12.26,120.42,72.05,120.42,144.05
				c0,71.9-51.9,131.68-120.28,144c15.22,6.48,27.64,18.26,34.92,33.03l0.89,2l155.9-1.71c0,0-20.4-28.48-23.31-65.31
				c-2.91-36.83-3.85-112-3.85-112C392.25,119.8,338.14,48.28,262.47,22.73z"/>
		</g>
	</g>
	<g>
		<g>
			<path class="st0" d="M832.9,94.88c-10,0-18.13,8.63-18.13,19.25v29.6c-12.84-9.12-28.26-14.42-44.83-14.42
				c-44.69,0-81.05,38.55-81.05,85.93c0,47.41,36.36,85.98,81.05,85.98c44.67,0,81.03-38.56,81.03-85.98v-0.64
				c0.02-0.5,0.06-0.98,0.06-1.5v-98.97C851.03,103.5,842.91,94.88,832.9,94.88z M769.93,262.78c-24.71,0-44.82-21.33-44.82-47.55
				c0-26.18,20.11-47.51,44.82-47.51c24.7,0,44.79,21.33,44.79,47.51C814.73,241.45,794.64,262.78,769.93,262.78z"/>
		</g>
		<path class="st0" d="M664.17,99.7c-10.01,0-18.13,8.61-18.13,19.22v162.33c0,10.62,8.12,19.23,18.13,19.23
			c10.01,0,18.12-8.61,18.12-19.23V118.92C682.29,108.31,674.17,99.7,664.17,99.7z"/>
		<g>
			<path class="st0" d="M634.68,215.92v-0.68c0-47.39-36.34-85.93-81.04-85.93c-44.68,0-81.05,38.55-81.05,85.93
				c0,47.41,36.37,85.98,81.05,85.98c16.86,0,32.53-5.5,45.51-14.89c2.12,8.15,9.13,14.14,17.45,14.14
				c10.02,0,18.14-8.6,18.14-19.21v-63.84C634.75,216.9,634.7,216.42,634.68,215.92z M553.64,262.78
				c-24.71,0-44.82-21.33-44.82-47.55c0-26.18,20.11-47.51,44.82-47.51c24.7,0,44.81,21.33,44.81,47.51
				C598.46,241.45,578.35,262.78,553.64,262.78z"/>
		</g>
		<g>
			<path class="st0" d="M936.42,129.3c-44.71,0-81.05,38.56-81.05,85.94c0,47.41,36.34,85.97,81.05,85.97h28.99
				c10,0,18.12-8.61,18.12-19.22c0-10.62-8.12-19.21-18.12-19.21h-28.99c-18.28,0-34.02-11.64-40.98-28.3h103.9
				c9.98,0,18.13-8.63,18.13-19.24C1017.47,167.86,981.08,129.3,936.42,129.3z M895.44,196.03c6.97-16.66,22.7-28.31,40.98-28.31
				c18.25,0,33.99,11.66,40.95,28.31H895.44z"/>
		</g>
		<g>
			<path class="st0" d="M1188.45,215.92v-0.68c0-47.39-36.34-85.93-81.04-85.93c-44.67,0-81.04,38.55-81.04,85.93
				c0,47.41,36.37,85.98,81.04,85.98c16.87,0,32.54-5.5,45.53-14.89c2.09,8.15,9.1,14.14,17.45,14.14c10,0,18.1-8.6,18.1-19.21
				v-63.84C1188.5,216.9,1188.47,216.42,1188.45,215.92z M1107.41,262.78c-24.68,0-44.8-21.33-44.8-47.55
				c0-26.18,20.12-47.51,44.8-47.51c24.71,0,44.81,21.33,44.81,47.51C1152.22,241.45,1132.12,262.78,1107.41,262.78z"/>
		</g>
	</g>
</g>
</svg>
