<?xml version="1.0" encoding="utf-8"?>
<!-- Generator: Adobe Illustrator 24.3.0, SVG Export Plug-In . SVG Version: 6.00 Build 0)  -->
<svg version="1.1" id="Capa_1" xmlns="http://www.w3.org/2000/svg" xmlns:xlink="http://www.w3.org/1999/xlink" x="0px" y="0px"
	 viewBox="0 0 52 52" style="enable-background:new 0 0 52 52;" xml:space="preserve">
<style type="text/css">
	.st0{fill:#FFFFFF;}
</style>
<path class="st0" d="M50.6,25.65C50.6,11.76,39.34,0.5,25.45,0.5S0.3,11.76,0.3,25.65s11.26,25.15,25.15,25.15
	c0.15,0,0.29,0,0.44-0.01V31.23h-5.4v-6.3h5.4v-4.64c0-5.37,3.28-8.3,8.08-8.3c2.3,0,4.27,0.17,4.84,0.25v5.62h-3.3
	c-2.6,0-3.11,1.24-3.11,3.06v4.01h6.24l-0.82,6.3H32.4v18.62C42.91,46.82,50.6,37.14,50.6,25.65z"/>
</svg>
