<?xml version="1.0" encoding="utf-8"?>
<!-- Generator: Adobe Illustrator 24.3.0, SVG Export Plug-In . SVG Version: 6.00 Build 0)  -->
<svg version="1.1" id="Capa_1" xmlns="http://www.w3.org/2000/svg" xmlns:xlink="http://www.w3.org/1999/xlink" x="0px" y="0px"
	 viewBox="0 0 409 135" style="enable-background:new 0 0 409 135;" xml:space="preserve">
<style type="text/css">
	.st0{fill:#FFFFFF;}
</style>
<g>
	<polygon class="st0" points="163.59,124.62 163.65,124.62 167.86,113.89 169.83,113.89 173.93,124.52 173.99,124.52 178.01,113.89 
		179.84,113.89 174.65,126.62 173.07,126.62 168.8,115.64 168.75,115.64 164.4,126.62 162.7,126.62 157.6,113.89 159.43,113.89 	"/>
	<polygon class="st0" points="187.79,124.62 187.85,124.62 192.06,113.89 194.03,113.89 198.13,124.52 198.19,124.52 202.21,113.89 
		204.04,113.89 198.86,126.62 197.27,126.62 193.01,115.64 192.95,115.64 188.6,126.62 186.91,126.62 181.81,113.89 183.64,113.89 	
		"/>
	<polygon class="st0" points="212,124.62 212.05,124.62 216.27,113.89 218.23,113.89 222.34,124.52 222.39,124.52 226.41,113.89 
		228.24,113.89 223.06,126.62 221.48,126.62 217.21,115.64 217.15,115.64 212.8,126.62 211.11,126.62 206.01,113.89 207.84,113.89 	
		"/>
	<rect x="230.43" y="124.44" class="st0" width="2.22" height="2.18"/>
	<path class="st0" d="M240.39,126.62h-1.66v-9.86c0.03-0.99-0.08-2-0.14-2.87h1.72l0.08,1.88h0.06c0.5-1.29,1.75-2.21,3.13-2.26
		c0.56-0.02,1.11,0,1.66,0.03v1.47c-0.33-0.02-0.69-0.1-1.03-0.1c-2.47,0-3.77,1.62-3.83,4.06V126.62z"/>
	<path class="st0" d="M256.94,117.64c-0.17-2.08-1.33-2.74-3.3-2.74c-1.75,0-3.19,0.48-3.41,2.21h-1.77c0.42-2.61,2.55-3.6,5.21-3.6
		c3.08,0,4.99,1.29,4.93,4.21v6.03c-0.03,0.99,0.08,2,0.14,2.87h-1.72l-0.06-1.88h-0.06l-0.08,0.18c-0.61,1.06-2.47,2.08-4.35,2.08
		c-2.58,0-4.63-1.45-4.63-3.93c0-1.72,1.14-3.04,2.8-3.68c1.86-0.74,4.27-0.48,6.29-0.58V117.64z M252.78,125.61
		c3.63,0,4.32-2.74,4.16-5.4c-2.36,0.08-7.29-0.33-7.29,2.87C249.65,124.79,251.09,125.61,252.78,125.61"/>
	<path class="st0" d="M273.63,124.74l-0.06-0.1c-1.14,1.52-2.83,2.36-4.77,2.36c-4.13,0-5.71-3.6-5.71-6.8
		c0-3.3,1.58-6.69,5.71-6.69c1.86,0,3.8,0.81,4.77,2.31l0.06-0.05v-7.45h1.66v15.44c0,0.99,0.08,2,0.14,2.87h-1.72L273.63,124.74z
		 M269.08,114.9c-3.16,0-4.19,2.69-4.19,5.12c0,2.36,0.75,5.58,3.94,5.58c3.63,0,4.74-2.76,4.74-5.66
		C273.57,117.36,272.32,114.9,269.08,114.9"/>
	<path class="st0" d="M282.39,110.21h-1.94v-1.9h1.94V110.21z M282.25,126.62h-1.66v-12.73h1.66V126.62z"/>
	<path class="st0" d="M299.8,120.25c0,3.35-2.05,6.75-6.49,6.75c-4.44,0-6.49-3.4-6.49-6.75s2.05-6.75,6.49-6.75
		C297.75,113.51,299.8,116.91,299.8,120.25 M293.31,114.9c-3.35,0-4.69,2.99-4.69,5.35c0,2.36,1.33,5.35,4.69,5.35
		c3.35,0,4.69-2.99,4.69-5.35C297.99,117.9,296.66,114.9,293.31,114.9"/>
	<path class="st0" d="M312.22,117.64c-0.17-2.08-1.33-2.74-3.3-2.74c-1.75,0-3.19,0.48-3.41,2.21h-1.77c0.42-2.61,2.55-3.6,5.21-3.6
		c3.08,0,4.99,1.29,4.93,4.21v6.03c-0.03,0.99,0.08,2,0.14,2.87h-1.72l-0.06-1.88h-0.06l-0.08,0.18c-0.61,1.06-2.47,2.08-4.35,2.08
		c-2.58,0-4.63-1.45-4.63-3.93c0-1.72,1.14-3.04,2.8-3.68c1.86-0.74,4.27-0.48,6.29-0.58V117.64z M308.06,125.61
		c3.63,0,4.32-2.74,4.16-5.4c-2.36,0.08-7.29-0.33-7.29,2.87C304.93,124.79,306.37,125.61,308.06,125.61"/>
	<rect x="319.34" y="108.31" class="st0" width="1.66" height="18.31"/>
	<path class="st0" d="M336.17,124.74l-0.06-0.1c-1.14,1.52-2.83,2.36-4.77,2.36c-4.13,0-5.71-3.6-5.71-6.8
		c0-3.3,1.58-6.69,5.71-6.69c1.86,0,3.8,0.81,4.77,2.31l0.06-0.05v-7.45h1.66v15.44c0,0.99,0.08,2,0.14,2.87h-1.72L336.17,124.74z
		 M331.62,114.9c-3.16,0-4.19,2.69-4.19,5.12c0,2.36,0.75,5.58,3.94,5.58c3.63,0,4.74-2.76,4.74-5.66
		C336.12,117.36,334.87,114.9,331.62,114.9"/>
	<path class="st0" d="M344.07,120.61c0.06,2.71,1.41,5,4.82,5c1.97,0,3.6-1.29,4.02-3.04h1.75c-0.86,3.04-2.94,4.44-6.29,4.44
		c-4.16,0-6.1-3.27-6.1-6.75c0-3.45,2.08-6.75,6.21-6.75c4.66,0,6.35,3.12,6.35,7.1H344.07z M353.03,119.21
		c-0.19-2.46-1.64-4.31-4.52-4.31c-2.72,0-4.16,2.08-4.38,4.31H353.03z"/>
	<path class="st0" d="M367.5,117.64c-0.17-2.08-1.33-2.74-3.3-2.74c-1.75,0-3.19,0.48-3.41,2.21h-1.77c0.41-2.61,2.55-3.6,5.21-3.6
		c3.08,0,4.99,1.29,4.93,4.21v6.03c-0.03,0.99,0.08,2,0.14,2.87h-1.72l-0.06-1.88h-0.06l-0.08,0.18c-0.61,1.06-2.47,2.08-4.35,2.08
		c-2.58,0-4.63-1.45-4.63-3.93c0-1.72,1.14-3.04,2.8-3.68c1.86-0.74,4.27-0.48,6.29-0.58V117.64z M363.34,125.61
		c3.63,0,4.32-2.74,4.16-5.4c-2.36,0.08-7.29-0.33-7.29,2.87C360.21,124.79,361.65,125.61,363.34,125.61"/>
	<rect x="375.12" y="124.44" class="st0" width="2.22" height="2.18"/>
	<path class="st0" d="M392.2,117.79c-0.14-1.95-1.5-2.89-3.8-2.89c-2.55,0-4.13,2.44-4.13,5.33c0,2.92,1.58,5.38,4.13,5.38
		c2.16,0,3.66-1.22,3.8-2.97h1.8c-0.44,2.92-2.27,4.36-5.43,4.36c-4.16,0-6.1-3.27-6.1-6.75c0-3.45,2.08-6.75,6.21-6.75
		c2.85,0,5.18,1.57,5.32,4.29H392.2z"/>
	<rect x="398.41" y="108.31" class="st0" width="1.66" height="18.31"/>
	<path class="st0" d="M56.41,16.85c-5.63-2.28-10.17-6.67-12.64-12.2C25.34,11.21,10.74,25.88,4.29,44.37
		c5.58,2.54,9.99,7.21,12.2,12.97C19.97,36.83,36.01,20.61,56.41,16.85"/>
	<path class="st0" d="M16.49,74.1c-2.21,5.76-6.62,10.43-12.2,12.97c6.44,18.49,21.05,33.16,39.49,39.71
		c2.46-5.53,7.01-9.92,12.63-12.2C36.01,110.82,19.97,94.6,16.49,74.1"/>
	<path class="st0" d="M86.3,65.72c0,11.5-9.33,20.82-20.83,20.82c-11.5,0-20.82-9.33-20.82-20.82c0-11.51,9.32-20.83,20.82-20.83
		C76.97,44.89,86.3,54.21,86.3,65.72"/>
	<path class="st0" d="M86.19,3.98l-0.65,2.66c-2.54,4.47-6.47,8.02-11.24,10.05c23.3,4.17,40.99,24.52,40.99,49.03
		c0,24.47-17.67,44.82-40.94,49.02c5.18,2.21,9.41,6.21,11.89,11.24l0.3,0.68l53.07-0.58c0,0-6.94-9.69-7.93-22.23
		c-0.99-12.54-1.31-38.12-1.31-38.12C130.37,37.02,111.95,12.67,86.19,3.98"/>
	<path class="st0" d="M280.36,28.54c-3.4,0-6.17,2.94-6.17,6.55v10.07c-4.37-3.11-9.62-4.91-15.26-4.91
		c-15.21,0-27.59,13.12-27.59,29.25c0,16.14,12.38,29.26,27.59,29.26c15.2,0,27.58-13.13,27.58-29.26v-0.22
		c0.01-0.17,0.02-0.33,0.02-0.51V35.09C286.54,31.47,283.78,28.54,280.36,28.54 M258.93,85.69c-8.41,0-15.26-7.26-15.26-16.18
		c0-8.91,6.85-16.17,15.26-16.17c8.41,0,15.25,7.26,15.25,16.17C274.18,78.43,267.34,85.69,258.93,85.69"/>
	<path class="st0" d="M222.93,30.18c-3.41,0-6.17,2.93-6.17,6.54v55.26c0,3.61,2.76,6.54,6.17,6.54c3.41,0,6.17-2.93,6.17-6.54
		V36.72C229.1,33.11,226.34,30.18,222.93,30.18"/>
	<path class="st0" d="M212.89,69.74v-0.23c0-16.13-12.37-29.25-27.58-29.25c-15.21,0-27.59,13.12-27.59,29.25
		c0,16.14,12.38,29.26,27.59,29.26c5.74,0,11.07-1.87,15.49-5.07c0.72,2.77,3.11,4.81,5.94,4.81c3.41,0,6.18-2.93,6.18-6.54V70.25
		C212.92,70.07,212.9,69.91,212.89,69.74 M185.31,85.69c-8.41,0-15.26-7.26-15.26-16.18c0-8.91,6.85-16.17,15.26-16.17
		c8.41,0,15.25,7.26,15.25,16.17C200.56,78.43,193.72,85.69,185.31,85.69"/>
	<path class="st0" d="M315.61,40.25c-15.22,0-27.59,13.12-27.59,29.25c0,16.14,12.37,29.26,27.59,29.26h9.87
		c3.4,0,6.17-2.93,6.17-6.54c0-3.61-2.77-6.54-6.17-6.54h-9.87c-6.22,0-11.58-3.96-13.95-9.64h35.37c3.4,0,6.17-2.94,6.17-6.55
		C343.19,53.38,330.81,40.25,315.61,40.25 M301.66,62.97c2.37-5.67,7.73-9.64,13.95-9.64c6.21,0,11.57,3.97,13.94,9.64H301.66z"/>
	<path class="st0" d="M401.39,69.74v-0.23c0-16.13-12.37-29.25-27.59-29.25c-15.21,0-27.59,13.12-27.59,29.25
		c0,16.14,12.38,29.26,27.59,29.26c5.74,0,11.08-1.87,15.5-5.07c0.71,2.77,3.1,4.81,5.94,4.81c3.4,0,6.16-2.93,6.16-6.54V70.25
		C401.41,70.07,401.4,69.91,401.39,69.74 M373.81,85.69c-8.4,0-15.25-7.26-15.25-16.18c0-8.91,6.85-16.17,15.25-16.17
		c8.41,0,15.25,7.26,15.25,16.17C389.06,78.43,382.22,85.69,373.81,85.69"/>
</g>
</svg>
